<?xml version="1.0" encoding="UTF-8" standalone="no"?>
<!DOCTYPE svg PUBLIC "-//W3C//DTD SVG 1.1//EN"
"http://www.w3.org/Graphics/SVG/1.1/DTD/svg11.dtd">
<svg viewBox="0 0 909 1286" version="1.1" xmlns="http://www.w3.org/2000/svg" xmlns:xlink="http://www.w3.org/1999/xlink">
<defs>
<style type="text/css"><![CDATA[
.g0{
}
.g1{
fill-opacity: 0;
}
.g2{
fill: none;
stroke: #000000;
stroke-width: 1.1;
stroke-linecap: butt;
stroke-linejoin: miter;
}
]]></style>
</defs>
<path d="M99.7,110.7h.8v.8h-.8Z" class="g0"/>
<path d="M99.7,110.7h.8v.8h-.8Z" class="g0"/>
<path d="M100.5,110.7H809.2v.8H100.5Z" class="g0"/>
<path d="M809.2,110.7h.8v.8h-.8Z" class="g0"/>
<path d="M809.2,110.7h.8v.8h-.8Z" class="g0"/>
<path d="M99.7,111.5h.8v23.1h-.8Z" class="g0"/>
<path d="M809.2,111.5h.8v23.1h-.8Z" class="g0"/>
<path d="M99.7,134.6h.8v21.2h-.8Z" class="g0"/>
<path d="M809.2,134.6h.8v21.2h-.8Z" class="g0"/>
<path d="M99.7,155.8h.8v21.7h-.8Z" class="g0"/>
<path d="M809.2,155.8h.8v21.7h-.8Z" class="g0"/>
<path d="M99.7,177.5h.8v21.6h-.8Z" class="g0"/>
<path d="M809.2,177.5h.8v21.6h-.8Z" class="g0"/>
<path d="M99.7,199.1h.8v21.3h-.8Z" class="g0"/>
<path d="M809.2,199.1h.8v21.3h-.8Z" class="g0"/>
<path d="M99.7,220.4h.8V242h-.8Z" class="g0"/>
<path d="M809.2,220.4h.8V242h-.8Z" class="g0"/>
<path d="M99.7,265.1h.8v.7h-.8Z" class="g0"/>
<path d="M99.7,265.1h.8v.7h-.8Z" class="g0"/>
<path d="M100.5,265.1H809.2v.7H100.5Z" class="g0"/>
<path d="M809.2,265.1h.8v.7h-.8Z" class="g0"/>
<path d="M809.2,265.1h.8v.7h-.8Z" class="g0"/>
<path d="M99.7,242h.8v23.1h-.8Z" class="g0"/>
<path d="M809.2,242h.8v23.1h-.8Z" class="g0"/>
<path d="M99.7,287.1h.8v.7h-.8Z" class="g0"/>
<path d="M99.7,287.1h.8v.7h-.8Z" class="g0"/>
<path d="M100.5,287.1H809.2v.7H100.5Z" class="g0"/>
<path d="M809.2,287.1h.8v.7h-.8Z" class="g0"/>
<path d="M809.2,287.1h.8v.7h-.8Z" class="g0"/>
<path d="M99.7,287.8h.8v23.1h-.8Z" class="g0"/>
<path d="M809.2,287.8h.8v23.1h-.8Z" class="g0"/>
<path d="M99.7,310.9h.8v21.7h-.8Z" class="g0"/>
<path d="M809.2,310.9h.8v21.7h-.8Z" class="g0"/>
<path d="M99.7,332.6h.8v21.6h-.8Z" class="g0"/>
<path d="M809.2,332.6h.8v21.6h-.8Z" class="g0"/>
<path d="M99.7,354.2h.8v21.3h-.8Z" class="g0"/>
<path d="M809.2,354.2h.8v21.3h-.8Z" class="g0"/>
<path d="M99.7,375.5h.8v21.6h-.8Z" class="g0"/>
<path d="M809.2,375.5h.8v21.6h-.8Z" class="g0"/>
<path d="M99.7,397.1h.8v21.3h-.8Z" class="g0"/>
<path d="M809.2,397.1h.8v21.3h-.8Z" class="g0"/>
<path d="M99.7,418.4h.8V440h-.8Z" class="g0"/>
<path d="M809.2,418.4h.8V440h-.8Z" class="g0"/>
<path d="M228.2,447.1h10.7v10.7H228.2Z" class="g1"/>
<path d="M256.2,430.7h10.7v10.7H256.2Z" class="g2"/>
<path d="M367.9,447.1h10.7v10.7H367.9Z" class="g1"/>
<path d="M369.5,430.2h10.6v10.6H369.5Z" class="g2"/>
<path d="M99.7,440h.8v21.6h-.8Z" class="g0"/>
<path d="M809.2,440h.8v21.6h-.8Z" class="g0"/>
<path d="M312.6,468.8h10.6v10.6H312.6Z" class="g1"/>
<path d="M476.1,468.8h10.7v10.6H476.1Z" class="g1"/>
<path d="M99.7,461.6h.8v21.3h-.8Z" class="g0"/>
<path d="M809.2,461.6h.8v21.3h-.8Z" class="g0"/>
<path d="M99.7,482.9h.8v21.6h-.8Z" class="g0"/>
<path d="M809.2,482.9h.8v21.6h-.8Z" class="g0"/>
<path d="M293.9,493.2h10.6v10.6H293.9Z" class="g2"/>
<path d="M99.7,504.5h.8v21.3h-.8Z" class="g0"/>
<path d="M809.2,504.5h.8v21.3h-.8Z" class="g0"/>
<path d="M375.7,533h10.6v10.6H375.7Z" class="g1"/>
<path d="M402.7,495.5h10.6v10.6H402.7Z" class="g2"/>
<path d="M470.4,495.2H481v10.6H470.4Z" class="g1"/>
<path d="M473.8,493.4h10.7V504H473.8Z" class="g2"/>
<path d="M508,533h10.6v10.6H508Z" class="g1"/>
<path d="M583.4,493.1H594v10.7H583.4Z" class="g2"/>
<path d="M633.8,533h10.6v10.6H633.8Z" class="g1"/>
<path d="M739,491h10.7v10.6H739Z" class="g2"/>
<path d="M99.7,548.9h.8v.7h-.8Z" class="g0"/>
<path d="M99.7,548.9h.8v.7h-.8Z" class="g0"/>
<path d="M100.5,548.9H809.2v.7H100.5Z" class="g0"/>
<path d="M809.2,548.9h.8v.7h-.8Z" class="g0"/>
<path d="M809.2,548.9h.8v.7h-.8Z" class="g0"/>
<path d="M99.7,525.8h.8v23.1h-.8Z" class="g0"/>
<path d="M809.2,525.8h.8v23.1h-.8Z" class="g0"/>
<path d="M99.7,571.3h.8v.7h-.8Z" class="g0"/>
<path d="M99.7,571.3h.8v.7h-.8Z" class="g0"/>
<path d="M100.5,571.3H809.2v.7H100.5Z" class="g0"/>
<path d="M809.2,571.3h.8v.7h-.8Z" class="g0"/>
<path d="M809.2,571.3h.8v.7h-.8Z" class="g0"/>
<path d="M99.7,572h.8v23.1h-.8Z" class="g0"/>
<path d="M809.2,572h.8v23.1h-.8Z" class="g0"/>
<path d="M99.7,595.1h.8v21.3h-.8Z" class="g0"/>
<path d="M809.2,595.1h.8v21.3h-.8Z" class="g0"/>
<path d="M99.7,616.4h.8V638h-.8Z" class="g0"/>
<path d="M809.2,616.4h.8V638h-.8Z" class="g0"/>
<path d="M99.7,638h.8v21.6h-.8Z" class="g0"/>
<path d="M809.2,638h.8v21.6h-.8Z" class="g0"/>
<path d="M99.7,659.6h.8v21.3h-.8Z" class="g0"/>
<path d="M809.2,659.6h.8v21.3h-.8Z" class="g0"/>
<path d="M99.7,680.9h.8v21.6h-.8Z" class="g0"/>
<path d="M809.2,680.9h.8v21.6h-.8Z" class="g0"/>
<path d="M99.7,702.5h.8v21.7h-.8Z" class="g0"/>
<path d="M809.2,702.5h.8v21.7h-.8Z" class="g0"/>
<path d="M99.7,724.2h.8v21.2h-.8Z" class="g0"/>
<path d="M809.2,724.2h.8v21.2h-.8Z" class="g0"/>
<path d="M99.7,745.4h.8v21.7h-.8Z" class="g0"/>
<path d="M809.2,745.4h.8v21.7h-.8Z" class="g0"/>
<path d="M99.7,766.9h.8v12h-.8Z" class="g0"/>
<path d="M809.2,766.9h.8v12.3h-.8Z" class="g0"/>
<path d="M572.9,795.5h10.6v10.6H572.9Z" class="g1"/>
<path d="M99.7,811.4h.8v.8h-.8Z" class="g0"/>
<path d="M99.7,811.4h.8v.8h-.8Z" class="g0"/>
<path d="M100.4,778.5H809.7v.7H100.4Z" class="g0"/>
<path d="M99.7,778.8h.8v.4h-.8Z" class="g0"/>
<path d="M98.9,793.8h.8v.7h-.8Z" class="g0"/>
<path d="M98.9,793.8h.8v.7h-.8Z" class="g0"/>
<path d="M99.7,793.8H808.4v.7H99.7Z" class="g0"/>
<path d="M808.4,793.8h.8v.7h-.8Z" class="g0"/>
<path d="M808.4,793.8h.8v.7h-.8Z" class="g0"/>
<path d="M98.9,794.5h.8v23.1h-.8Z" class="g0"/>
<path d="M808.4,794.5h.8v23.1h-.8Z" class="g0"/>
<path d="M98.9,817.6h.8v24.6h-.8Z" class="g0"/>
<path d="M808.4,817.6h.8v24.6h-.8Z" class="g0"/>
<path d="M98.9,842.2h.8v21.6h-.8Z" class="g0"/>
<path d="M808.4,842.2h.8v21.6h-.8Z" class="g0"/>
<path d="M98.9,863.8h.8v21.3h-.8Z" class="g0"/>
<path d="M808.4,863.8h.8v21.3h-.8Z" class="g0"/>
<path d="M98.9,885.1h.8v21.6h-.8Z" class="g0"/>
<path d="M808.4,885.1h.8v21.6h-.8Z" class="g0"/>
<path d="M98.9,906.7h.8v21.7h-.8Z" class="g0"/>
<path d="M808.4,906.7h.8v21.7h-.8Z" class="g0"/>
<path d="M98.9,951.1h.8v.7h-.8Z" class="g0"/>
<path d="M98.9,951.1h.8v.7h-.8Z" class="g0"/>
<path d="M99.7,951.1H808.4v.7H99.7Z" class="g0"/>
<path d="M808.4,951.1h.8v.7h-.8Z" class="g0"/>
<path d="M808.4,951.1h.8v.7h-.8Z" class="g0"/>
<path d="M98.9,928.4h.8v22.7h-.8Z" class="g0"/>
<path d="M808.4,928.4h.8v22.7h-.8Z" class="g0"/>
<image preserveAspectRatio="none" x="100" y="1181" width="700" height="62" xlink:href="img/1.jpg"/>
<image preserveAspectRatio="none" x="145" y="94" width="631" height="216" xlink:href="img/2.png"/>
</svg>